<?xml version="1.0" encoding="UTF-8"?>
<!-- Generator: Adobe Illustrator 16.0.0, SVG Export Plug-In . SVG Version: 6.00 Build 0)  -->
<!DOCTYPE svg PUBLIC "-//W3C//DTD SVG 1.1//EN" "http://www.w3.org/Graphics/SVG/1.1/DTD/svg11.dtd">
<svg version="1.1" id="Layer_1" xmlns="http://www.w3.org/2000/svg" xmlns:xlink="http://www.w3.org/1999/xlink" x="0px" y="0px" width="600.083px" height="120.767px" viewBox="0 0 600.083 120.767" enable-background="new 0 0 600.083 120.767" xml:space="preserve">
<path fill-rule="evenodd" clip-rule="evenodd" fill="rgb(255, 254, 75)" d="M547.571,117.766h-6.261L499.619,3.75h9.134l32.999,91.787  c1.374,3.729,2.308,7.313,2.799,10.747h0.369c0.49-2.65,1.571-6.305,3.241-10.967L583.075,3.75h8.765L547.571,117.766z M429.57,3.75  h53.55v7.508h-45.374v45.268h42.06v7.434h-42.06v46.445h47.952v7.361H429.57V3.75z M384.337,110.59  c-9.036,4.784-19.619,7.176-31.747,7.176h-27.033V3.75h28.727c18.954,0,33.379,4.711,43.274,14.132  c9.895,9.422,14.842,23.186,14.842,41.293c0,11.63-2.419,21.911-7.255,30.841C400.309,98.948,393.372,105.805,384.337,110.59z   M353.106,11.258h-19.372v99.147h17.825c16.842,0,29.782-4.403,38.818-13.212c9.035-8.808,13.553-21.383,13.553-37.724  C403.931,27.329,386.989,11.258,353.106,11.258z M266.931,117.766h-17.752v-41.22L212.645,3.75h20.256l22.981,48.359  c0,0.049,0.908,2.65,2.725,7.802h0.221c0.589-2.551,1.547-5.103,2.873-7.655L285.567,3.75h18.783l-37.418,72.429V117.766z   M182.818,117.766l-40.217-51.23c-1.473-1.864-2.48-3.459-3.02-4.785h-0.369v56.015h-17.678V3.75h17.678v53.732h0.369  c0.687-1.373,1.718-2.968,3.094-4.784L181.346,3.75h21.508l-45.668,54.616l49.13,59.4H182.818z M61.013,115.847  c10.459-6.041,17.626-17.135,18.163-29.943c4.682-6.909,7.035-15.641,7.035-26.212c0-13.298-3.659-23.418-10.975-30.363  c-7.318-6.943-17.924-10.416-31.821-10.416H27.431v32.516c-7.8,3.651-14.09,9.986-17.678,17.817V3.75h34.62  c40.266,0,60.4,18.524,60.4,55.573c0,17.813-5.733,32.007-17.199,42.581C80.094,108.802,71.24,113.449,61.013,115.847z   M9.753,117.766V99.47c3.75,8.185,10.451,14.737,18.744,18.296H9.753z M42.839,56.089c15.624,0,28.289,12.656,28.289,28.269  c0,15.613-12.665,28.269-28.289,28.269S14.55,99.97,14.55,84.357C14.55,68.745,27.216,56.089,42.839,56.089z"/>
</svg>
